<svg id="Layer_1" data-name="Layer 1" xmlns="http://www.w3.org/2000/svg" viewBox="0 0 500 146"><defs><style>.cls-1{fill:#929497;}.cls-2{fill:#e1e7e7;}.cls-3{fill:#231f20;}</style></defs><title>2</title><g id="Layer_2" data-name="Layer 2"><path class="cls-1" d="M-39.22,6.12C-39.22,2.74-23.41,0-3.9,0H511c19.51,0,35.31,2.74,35.31,6.12V139.88c0,3.38-15.81,6.12-35.32,6.12H-3.9c-19.5,0-35.32-2.74-35.32-6.12V6.12Z"/><path class="cls-1" d="M-39.22,6.12C-39.22,2.74-23.41,0-3.9,0H511c19.51,0,35.31,2.74,35.31,6.12V139.88c0,3.38-15.81,6.12-35.32,6.12H-3.9c-19.5,0-35.32-2.74-35.32-6.12V6.12Z"/><path class="cls-2" d="M-39.22,6.12C-39.22,2.74-23.41,0-3.9,0H511c19.51,0,35.31,2.74,35.31,6.12V139.88c0,3.38-15.81,6.12-35.32,6.12H-3.9c-19.5,0-35.32-2.74-35.32-6.12V6.12Z"/></g><polygon id="_Path_" data-name="&lt;Path&gt;" class="cls-3" points="92.59 130.12 92.59 116.49 95.83 116.49 95.83 130.12 98.48 130.12 98.48 146 89.94 146 89.94 130.12 92.59 130.12"/><polygon id="_Path_2" data-name="&lt;Path&gt;" class="cls-3" points="404.02 130.12 404.02 116.49 407.27 116.49 407.27 130.12 409.91 130.12 409.91 146 401.38 146 401.38 130.12 404.02 130.12"/><polygon id="_Path_3" data-name="&lt;Path&gt;" class="cls-3" points="407.26 15.12 407.26 27.76 404.02 27.76 404.02 15.12 401.37 15.12 401.37 0.39 409.91 0.39 409.91 15.12 407.26 15.12"/><polygon id="_Path_4" data-name="&lt;Path&gt;" class="cls-3" points="95.83 15.12 95.83 27.76 92.59 27.76 92.59 15.12 89.94 15.12 89.94 0.39 98.48 0.39 98.48 15.12 95.83 15.12"/></svg>